<svg id="ninja-dojo" xmlns="http://www.w3.org/2000/svg" width="176.329" height="183.17" viewBox="-1 0 176.329 183.17">
    <g id="keyboard-type">
        <g id="frame-1">
            <path fill="#1E1725"
                  d="M108.417 180.167c-4.107 0-7.248-1.057-9.084-3.047-6.435-6.986-.354-13.26 3.28-17.004 1.136-1.174 3.038-3.133 2.97-3.764-.428-.529-3.908-1.687-11.854-1.687-9.721 0-17.66 1.67-18.706 3.168-.541.772-1.157 2.136-1.87 3.709-2.611 5.767-6.558 14.479-15.588 14.479-1.481 0-3.055-.248-4.675-.735-11.389-3.435-11.039-15.81-10.596-31.478.193-6.838.411-14.539-.331-22.44-9.453-.646-31.474-10.938-31.474-23.229 0-7.565 3.894-11.401 11.572-11.401 3.603 0 7.55.815 11.033 1.534 2.616.54 5.086 1.049 6.716 1.049.394 0 .676-.03.874-.068-.352-17.541-.672-49.032 17.625-67.707C68.214 11.436 82.49 6.31 100.738 6.31c18.669 0 33.685 5.57 44.625 16.556 22.472 22.558 22.317 61.656 22.244 80.445-.004.991-.008 1.922-.007 2.785.009 28.188-12.161 46.061-22.373 56.086-12.65 12.424-27.604 17.983-36.809 17.983l-.001.002z"/>
            <path d="M100.738 7.811c68.246 0 65.354 74.737 65.362 98.288.016 49.943-39.25 72.57-57.686 72.57-3.604 0-6.416-.867-7.979-2.563-8.653-9.397 8.707-16.653 6.44-20.5-.978-1.657-6.705-2.438-13.147-2.438-8.49 0-18.22 1.354-19.937 3.813-2.687 3.851-5.745 17.547-16.228 17.547-1.296 0-2.706-.209-4.241-.672-15.231-4.594-7.197-27.866-10.001-53.961a8.63 8.63 0 0 1-.462.013c-8.264-.002-30.87-10.242-30.87-21.765 0-7.833 4.512-9.9 10.073-9.9 6.216 0 13.743 2.583 17.748 2.583 1.092 0 1.922-.191 2.393-.68-.607-29.662 0-82.335 58.535-82.335m0-3c-18.667 0-33.303 5.278-43.5 15.687-18.223 18.599-18.414 49.29-18.081 67.3-1.48-.109-3.566-.54-5.758-.992-3.555-.733-7.582-1.564-11.336-1.564-3.864 0-6.816.881-9.025 2.694-2.687 2.204-4.048 5.64-4.048 10.208 0 12.787 20.939 23.162 31.588 24.592.603 7.388.398 14.599.217 21.035-.443 15.662-.826 29.188 11.662 32.955 1.761.531 3.479.801 5.107.801 9.998 0 14.353-9.614 16.954-15.358.631-1.396 1.228-2.711 1.684-3.396 1.294-1.099 8.497-2.603 17.526-2.603 4.817 0 8.037.44 9.692.881-.551.646-1.309 1.429-1.885 2.021-3.74 3.854-10.703 11.032-3.309 19.063 2.128 2.313 5.65 3.531 10.188 3.531 9.512 0 24.908-5.692 37.863-18.416 10.416-10.229 22.83-28.444 22.821-57.156 0-.858.003-1.786.007-2.778.074-18.99.229-58.508-22.682-81.508-11.23-11.279-26.602-16.997-45.685-16.997z"/>
            <path fill="#ECB57C"
                  d="M101.969 96.054c-1.527 0-3.088-.01-4.672-.02-1.631-.01-3.291-.02-4.973-.02-1.683 0-3.342.008-4.975.02-1.584.01-3.143.02-4.67.02-9.362 0-18.31-.266-24.852-3.455-7.065-3.446-10.5-10.046-10.5-20.182 0-21.891 15.56-33.461 44.997-33.461 29.436 0 44.995 11.571 44.995 33.461.003 21.896-15.319 23.637-35.35 23.637z"/>
            <path d="M92.327 40.457c24.021 0 43.495 7.939 43.495 31.961 0 20.707-14.473 22.138-33.853 22.138-3.104 0-6.329-.037-9.645-.037-3.313 0-6.542.037-9.645.037-19.382 0-33.852-1.43-33.852-22.138.003-24.022 19.476-31.961 43.5-31.961m0-3c-13.687 0-24.574 2.502-32.363 7.438-9.379 5.941-14.134 15.203-14.134 27.522 0 10.766 3.71 17.808 11.343 21.53 6.829 3.329 15.963 3.604 25.509 3.604 1.531 0 3.093-.01 4.681-.018 1.63-.01 3.286-.02 4.964-.02 1.68 0 3.336.008 4.965.02 1.586.008 3.147.018 4.68.018 9.545 0 18.68-.275 25.509-3.604 7.633-3.723 11.345-10.765 11.345-21.53 0-12.32-4.757-21.581-14.135-27.523-7.792-4.936-18.681-7.437-32.364-7.437z"/>
            <path d="M67.695 69.57c0 4.911-1.78 8.892-6.068 8.892-4.289 0-6.068-3.981-6.068-8.892s1.883-8.892 6.068-8.892c4.186 0 6.068 3.982 6.068 8.892zM128.432 69.57c0 4.911-2.301 8.892-7.84 8.892-5.541 0-7.84-3.981-7.84-8.892s2.432-8.892 7.84-8.892c5.408.001 7.84 3.982 7.84 8.892z"/>
            <g id="Layer_19_copy_3">
                <path fill="#495674" stroke="#2B2844" stroke-width="3" stroke-miterlimit="10"
                      d="M90.691 162.604H21.025c-2.762 0-5-5.235-5-8 0 0 32.905-13.666 35.667-13.666h69.667a5 5 0 0 1 5 5c-.001 0-32.907 16.666-35.668 16.666z"/>
                <path fill="#7F8CB0" d="M120.191 140.938H92.6s1.841 10.396 1.091 12.906l26.5-12.906z"/>
                <path fill="#6B7695"
                      d="M91.114 155.604l-.423 7 35.667-16.666s.256-5-2.372-5-33.295 14.039-33.295 14.039"/>
                <path fill="none" stroke="#2B2844" stroke-width="3" stroke-miterlimit="10"
                      d="M90.691 162.604H21.025c-2.762 0-5-5.235-5-8 0 0 32.905-13.666 35.667-13.666h69.667a5 5 0 0 1 5 5c-.001 0-32.907 16.666-35.668 16.666zM91.114 154.978l31.517-13.87"/>
                <path fill="none" stroke="#2B2844" stroke-miterlimit="10"
                      d="M112.319 140.938l-25.27 10.834M102.319 140.938l-25.27 10.834M104.068 148.356h-23.32M112.068 145.356H88.749"/>
                <circle fill="#2B2844" cx="93.792" cy="158.002" r="1.192"/>
                <path fill="none" stroke="#2B2844" stroke-linecap="round" stroke-miterlimit="10"
                      d="M97.152 156.81l4.334-1.832"/>
            </g>
            <g>
                <path fill="#1E1725"
                      d="M121.333 100.853c1.371 6.582-37.745 21.402-28.928 36.849 9.561 16.752 42.906-8.828 42.906-8.828"/>
                <path d="M121.333 100.853c.146.502.039 1.062-.164 1.549a6.73 6.73 0 0 1-.797 1.375c-.623.859-1.365 1.609-2.115 2.341-1.504 1.459-3.135 2.756-4.748 4.057-3.25 2.572-6.538 5.054-9.672 7.656-1.564 1.301-3.086 2.644-4.506 4.055-1.418 1.408-2.771 2.863-3.883 4.431-1.111 1.563-1.988 3.237-2.352 4.92a7.283 7.283 0 0 0 .521 4.875c.773 1.611 1.903 2.938 3.317 3.871 1.403.94 3.129 1.44 4.96 1.578 3.686.237 7.639-.64 11.406-1.943 7.607-2.617 14.867-6.572 22.007-10.74-3.038 2.834-6.373 5.334-9.845 7.646-3.483 2.297-7.159 4.342-11.077 5.982a41.316 41.316 0 0 1-6.118 1.982c-2.113.502-4.329.801-6.619.649-2.273-.131-4.667-.737-6.727-2.069-2.063-1.313-3.613-3.328-4.592-5.439-1.039-2.191-1.287-4.871-.686-7.205.598-2.348 1.801-4.336 3.135-6.084 2.708-3.492 6.041-6.146 9.403-8.623 3.378-2.471 6.899-4.654 10.37-6.873 1.738-1.104 3.455-2.229 5.107-3.426.821-.604 1.613-1.246 2.33-1.959.684-.708 1.434-1.542 1.345-2.606z"/>
            </g>
            <path fill="#495674" stroke="#2B2844" stroke-width="3" stroke-miterlimit="10"
                  d="M93.691 150.604c0 2.765-2.239 5-5 5H19.025c-2.762 0-5-2.235-5-5l-5-44.332a5 5 0 0 1 5-5h69.667a5 5 0 0 1 5 5l4.999 44.332z"/>
        </g>
        <g id="frame-2">
            <path fill="#1E1725"
                  d="M108.417 180.167c-4.106 0-7.248-1.057-9.082-3.047-6.436-6.986-.354-13.26 3.279-17.004 1.137-1.174 3.038-3.133 2.971-3.764-.429-.529-3.91-1.688-11.854-1.688-9.722 0-17.661 1.67-18.707 3.168-.541.775-1.157 2.139-1.87 3.711-2.611 5.768-6.558 14.479-15.588 14.479-1.481 0-3.055-.248-4.675-.734-11.389-3.436-11.039-15.811-10.596-31.479.192-6.802.409-14.455-.318-22.313-1.09.102-2.373.254-3.786.42-3.739.441-8.393.994-12.746.994-9.922 0-14.953-3.063-14.953-9.104 0-14.858 15.045-19.424 24.035-22.146 2.475-.75 5.021-1.523 6.165-2.229-.354-17.507-.739-49.15 17.619-67.889C68.215 11.436 82.491 6.31 100.739 6.31c18.67 0 33.684 5.57 44.627 16.556 22.469 22.558 22.315 61.656 22.243 80.445-.004.992-.009 1.922-.008 2.785.008 28.189-12.162 46.06-22.373 56.086-12.651 12.424-27.603 17.984-36.81 17.984l-.001.001z"/>
            <path d="M100.739 7.81c68.247 0 65.355 74.737 65.362 98.287.017 49.945-39.25 72.57-57.685 72.57-3.605 0-6.418-.865-7.98-2.563-8.654-9.397 8.707-16.653 6.441-20.5-.979-1.658-6.707-2.438-13.147-2.438-8.491 0-18.221 1.354-19.938 3.813-2.687 3.851-5.745 17.547-16.228 17.547-1.296 0-2.706-.209-4.241-.672-15.231-4.596-7.197-27.867-10.001-53.961-3.783.193-11.207 1.521-17.879 1.521-7.159 0-13.453-1.524-13.453-7.604 0-18.979 26.472-19.783 30.214-23.666-.607-29.66 0-82.334 58.535-82.334m0-3c-18.667 0-33.303 5.278-43.5 15.687-18.473 18.854-18.416 50.137-18.068 68.037-1.235.527-3.393 1.182-5.082 1.693-9.388 2.847-25.1 7.61-25.1 23.583 0 4.838 2.854 10.604 16.453 10.604 4.441 0 9.145-.558 12.922-1.004a293.26 293.26 0 0 1 2.245-.261c.563 7.242.362 14.304.185 20.623-.443 15.662-.826 29.188 11.662 32.955 1.761.531 3.479.801 5.107.801 9.999 0 14.353-9.614 16.954-15.36.631-1.394 1.228-2.711 1.684-3.396 1.294-1.098 8.497-2.602 17.526-2.602 4.816 0 8.037.439 9.693.881-.551.646-1.31 1.428-1.887 2.021-3.74 3.855-10.703 11.031-3.308 19.063 2.128 2.313 5.649 3.531 10.188 3.531 9.512 0 24.907-5.691 37.862-18.416 10.416-10.229 22.83-28.443 22.821-57.154 0-.859.003-1.787.007-2.779.074-18.992.229-58.51-22.681-81.51-11.229-11.278-26.6-16.997-45.683-16.997z"/>
            <path fill="#ECB57C"
                  d="M101.97 96.052c-1.527 0-3.087-.008-4.671-.018-1.633-.01-3.291-.02-4.973-.02-1.684 0-3.343.008-4.976.02-1.584.01-3.143.018-4.67.018-9.362 0-18.31-.264-24.852-3.453-7.065-3.446-10.5-10.047-10.5-20.182 0-21.891 15.56-33.461 44.996-33.461 29.437 0 44.995 11.571 44.995 33.461.003 21.896-15.319 23.635-35.349 23.635z"/>
            <path d="M92.327 40.456c24.021 0 43.495 7.939 43.495 31.961 0 20.708-14.472 22.135-33.852 22.135-3.103 0-6.329-.035-9.644-.035-3.313 0-6.542.035-9.646.035-19.382 0-33.852-1.428-33.852-22.135.003-24.022 19.476-31.961 43.499-31.961m0-3c-13.686 0-24.573 2.502-32.362 7.438-9.378 5.942-14.134 15.203-14.134 27.523 0 10.766 3.71 17.808 11.343 21.53 6.829 3.329 15.963 3.606 25.509 3.606 1.531 0 3.093-.01 4.681-.02 1.629-.01 3.286-.02 4.965-.02 1.678 0 3.334.008 4.963.02 1.588.01 3.148.02 4.681.02 9.545 0 18.68-.277 25.51-3.606 7.634-3.723 11.343-10.765 11.343-21.53 0-12.32-4.755-21.581-14.134-27.523-7.792-4.936-18.681-7.438-32.365-7.438z"/>
            <path d="M67.696 69.57c0 4.911-1.78 8.892-6.068 8.892-4.289 0-6.068-3.981-6.068-8.892s1.883-8.892 6.068-8.892c4.186 0 6.068 3.981 6.068 8.892zM128.433 69.57c0 4.911-2.3 8.892-7.841 8.892s-7.84-3.981-7.84-8.892 2.433-8.892 7.84-8.892c5.408 0 7.841 3.981 7.841 8.892z"/>
            <g id="Layer_19_copy">
                <path fill="#495674" stroke="#2B2844" stroke-width="3" stroke-miterlimit="10"
                      d="M90.696 162.604H21.029c-2.762 0-5-5.237-5-8 0 0 32.905-13.666 35.667-13.666h69.667a5 5 0 0 1 5 5s-32.905 16.666-35.667 16.666z"/>
                <path fill="#7F8CB0" d="M120.196 140.938h-27.59s1.84 10.396 1.09 12.906l26.5-12.906z"/>
                <path fill="#6B7695"
                      d="M91.12 155.604l-.424 7 35.667-16.666s.257-5-2.372-5c-2.628 0-33.295 14.039-33.295 14.039"/>
                <path fill="none" stroke="#2B2844" stroke-width="3" stroke-miterlimit="10"
                      d="M90.696 162.604H21.029c-2.762 0-5-5.237-5-8 0 0 32.905-13.666 35.667-13.666h69.667a5 5 0 0 1 5 5s-32.905 16.666-35.667 16.666zM91.12 154.978l31.517-13.87"/>
                <path fill="none" stroke="#2B2844" stroke-miterlimit="10"
                      d="M112.325 140.938l-25.271 10.834M102.325 140.938l-25.271 10.834M104.073 148.356H80.752M112.073 145.356H88.752"/>
                <circle fill="#2B2844" cx="93.797" cy="158.002" r="1.192"/>
                <path fill="none" stroke="#2B2844" stroke-linecap="round" stroke-miterlimit="10"
                      d="M97.157 156.81l4.334-1.832"/>
            </g>
            <g>
                <path fill="#1E1725"
                      d="M126.363 103.337c-2.312 6.313-43.355-1.742-44.02 16.029-.721 19.271 41.104 15.146 41.104 15.146"/>
                <path d="M126.363 103.337c-.143.504-.526.922-.956 1.229a6.76 6.76 0 0 1-1.402.75c-.981.398-2.01.646-3.031.869-2.049.445-4.116.687-6.174.939-4.118.471-8.221.842-12.256 1.396-2.018.278-4.017.615-5.967 1.063-1.949.447-3.865.972-5.638 1.715-1.769.738-3.397 1.699-4.594 2.939a7.29 7.29 0 0 0-2.129 4.415c-.192 1.777.066 3.5.775 5.041.694 1.541 1.896 2.875 3.38 3.957 3.004 2.146 6.824 3.488 10.715 4.369 7.842 1.793 16.096 2.267 24.36 2.494-4.077.803-8.229 1.168-12.397 1.299-4.172.109-8.373-.092-12.566-.766a41.03 41.03 0 0 1-6.242-1.547c-2.063-.688-4.102-1.604-5.967-2.938-1.861-1.313-3.574-3.09-4.621-5.313-1.059-2.201-1.312-4.73-1.028-7.045.276-2.41 1.478-4.813 3.222-6.479 1.746-1.68 3.818-2.731 5.873-3.514 4.145-1.536 8.375-2.031 12.54-2.359 4.171-.313 8.316-.313 12.435-.362 2.06-.021 4.11-.068 6.146-.216 1.019-.077 2.029-.204 3.014-.433.946-.237 2.022-.551 2.508-1.503z"/>
            </g>
            <path fill="#495674" stroke="#2B2844" stroke-width="3" stroke-miterlimit="10"
                  d="M93.696 150.604c0 2.763-2.238 5-5 5H19.029c-2.762 0-5-2.237-5-5l-5-44.332a5 5 0 0 1 5-5h69.667a5 5 0 0 1 5 5l5 44.332z"/>
        </g>
        <g id="frame-3">
            <path fill="#1E1725"
                  d="M108.381 180.167c-4.105 0-7.248-1.057-9.084-3.047-6.435-6.986-.354-13.26 3.281-17.004 1.135-1.174 3.037-3.133 2.969-3.764-.428-.529-3.907-1.687-11.854-1.687-9.722 0-17.661 1.67-18.707 3.168-.541.772-1.157 2.136-1.87 3.709-2.611 5.767-6.558 14.479-15.588 14.479-1.481 0-3.055-.248-4.674-.735-11.391-3.435-11.039-15.81-10.598-31.478.19-6.729.404-14.295-.296-22.065-2.706 1.182-5.623 5.026-7.842 7.953-2.329 3.069-3.734 4.924-5.393 4.924-2.523 0-2.523-3.549-2.523-5.063 0-18.158 9.62-34.607 14.452-39.993-.354-17.478-.787-49.234 17.619-68.02 9.904-10.11 24.18-15.236 42.429-15.236 18.668 0 33.684 5.57 44.625 16.556 22.471 22.558 22.316 61.656 22.243 80.445-.004.991-.008 1.922-.006 2.784.008 28.189-12.162 46.062-22.373 56.087-12.651 12.424-27.604 17.983-36.812 17.983.004.004.004.004.002.004z"/>
            <path d="M100.704 7.811c68.248 0 65.355 74.737 65.362 98.288.017 49.943-39.249 72.57-57.687 72.57-3.604 0-6.416-.867-7.979-2.563-8.654-9.397 8.707-16.653 6.439-20.5-.979-1.657-6.705-2.438-13.146-2.438-8.491 0-18.221 1.354-19.938 3.813-2.687 3.851-5.745 17.547-16.228 17.547-1.295 0-2.706-.209-4.241-.672-15.23-4.594-7.197-27.866-10.001-53.961-6.133.316-12.203 13.229-14.559 13.229-.655 0-1.023-1.004-1.023-3.563 0-18.979 10.722-35.535 14.464-39.417-.604-29.66.001-82.333 58.537-82.333m0-3c-18.667 0-33.302 5.278-43.5 15.687-18.641 19.025-18.413 50.709-18.059 68.523-5.084 5.98-14.44 22.455-14.44 40.541 0 1.625 0 6.563 4.023 6.563 2.401 0 3.978-2.076 6.587-5.518 1.412-1.861 3.446-4.545 5.35-6.209.45 6.805.263 13.418.095 19.373-.441 15.662-.825 29.188 11.662 32.955 1.762.53 3.479.801 5.107.801 9.999 0 14.353-9.615 16.955-15.359.63-1.395 1.227-2.711 1.683-3.396 1.294-1.098 8.497-2.602 17.527-2.602 4.814 0 8.037.439 9.689.881-.551.646-1.307 1.428-1.885 2.021-3.74 3.854-10.703 11.031-3.307 19.063 2.127 2.313 5.648 3.531 10.188 3.531 9.513 0 24.906-5.691 37.861-18.416 10.416-10.229 22.83-28.443 22.822-57.156 0-.857.004-1.785.008-2.777.074-18.991.229-58.509-22.682-81.509-11.229-11.279-26.6-16.997-45.684-16.997z"/>
            <path fill="#ECB57C"
                  d="M101.935 96.054c-1.526 0-3.087-.01-4.671-.02a808.42 808.42 0 0 0-4.975-.02c-1.682 0-3.342.008-4.974.02-1.584.01-3.145.02-4.67.02-9.363 0-18.312-.266-24.854-3.455-7.063-3.446-10.5-10.046-10.5-20.182 0-21.891 15.562-33.461 44.996-33.461 29.438 0 44.996 11.571 44.996 33.461.005 21.896-15.318 23.637-35.348 23.637z"/>
            <path d="M92.292 40.457c24.022 0 43.496 7.939 43.496 31.961 0 20.707-14.472 22.138-33.853 22.138-3.104 0-6.328-.037-9.646-.037-3.313 0-6.542.037-9.644.037-19.383 0-33.854-1.43-33.854-22.138.004-24.022 19.478-31.961 43.501-31.961m0-3c-13.685 0-24.572 2.502-32.36 7.438-9.379 5.942-14.135 15.203-14.135 27.523 0 10.766 3.71 17.808 11.344 21.531 6.828 3.327 15.963 3.604 25.51 3.604 1.529 0 3.092-.01 4.68-.02 1.629-.01 3.286-.02 4.963-.02 1.68 0 3.336.008 4.965.02 1.587.01 3.147.02 4.682.02 9.545 0 18.68-.277 25.51-3.604 7.633-3.724 11.342-10.766 11.342-21.531 0-12.32-4.754-21.581-14.133-27.523-7.794-4.937-18.684-7.438-32.368-7.438z"/>
            <path d="M67.661 69.57c0 4.911-1.78 8.892-6.068 8.892-4.289 0-6.066-3.981-6.066-8.892s1.882-8.892 6.066-8.892c4.186.001 6.068 3.982 6.068 8.892zM128.399 69.57c0 4.911-2.301 8.892-7.841 8.892-5.541 0-7.841-3.981-7.841-8.892s2.434-8.892 7.841-8.892c5.407.001 7.841 3.982 7.841 8.892z"/>
            <g>
                <path fill="#495674" stroke="#2B2844" stroke-width="3" stroke-miterlimit="10"
                      d="M90.657 162.604H20.99c-2.762 0-5-5.235-5-8 0 0 32.905-13.666 35.667-13.666h69.667a5 5 0 0 1 5 5c.001 0-32.907 16.666-35.667 16.666z"/>
                <path fill="#7F8CB0" d="M120.157 140.938h-27.59s1.84 10.396 1.09 12.906l26.5-12.906z"/>
                <path fill="#6B7695"
                      d="M91.081 155.604l-.424 7 35.668-16.666s.256-5-2.373-5c-2.627 0-33.295 14.039-33.295 14.039"/>
                <path fill="none" stroke="#2B2844" stroke-width="3" stroke-miterlimit="10"
                      d="M90.657 162.604H20.99c-2.762 0-5-5.235-5-8 0 0 32.905-13.666 35.667-13.666h69.667a5 5 0 0 1 5 5c.001 0-32.907 16.666-35.667 16.666zM91.081 154.978l31.517-13.87"/>
                <path fill="none" stroke="#2B2844" stroke-miterlimit="10"
                      d="M112.286 140.938l-25.271 10.834M102.286 140.938l-25.271 10.834M104.034 148.356H80.713M112.034 145.356H88.713"/>
                <circle fill="#2B2844" cx="93.758" cy="158.002" r="1.192"/>
                <path fill="none" stroke="#2B2844" stroke-linecap="round" stroke-miterlimit="10"
                      d="M97.118 156.81l4.334-1.832"/>
            </g>
            <g>
                <path fill="#1E1725"
                      d="M130.915 104.729c-5.146 4.332-36.754-23.063-46.164-7.973-10.207 16.365 28.135 33.576 28.135 33.576"/>
                <path d="M130.915 104.729c-.375.367-.916.537-1.439.593a6.735 6.735 0 0 1-1.592-.05c-1.051-.143-2.063-.438-3.062-.752-1.999-.631-3.913-1.451-5.825-2.254-3.807-1.639-7.551-3.354-11.33-4.879-1.889-.762-3.791-1.461-5.707-2.041-1.912-.58-3.834-1.08-5.742-1.313-1.898-.236-3.793-.214-5.444.266a7.286 7.286 0 0 0-4.044 2.773c-1.052 1.444-1.683 3.069-1.832 4.758-.162 1.685.216 3.438.965 5.112 1.541 3.357 4.188 6.421 7.126 9.119 5.914 5.453 12.841 9.965 19.897 14.271-3.938-1.33-7.721-3.078-11.402-5.037-3.677-1.979-7.22-4.24-10.523-6.908a41.408 41.408 0 0 1-4.648-4.445c-1.444-1.623-2.76-3.432-3.716-5.518-.963-2.063-1.563-4.457-1.371-6.902.179-2.438 1.218-4.76 2.61-6.625 1.438-1.955 3.676-3.442 6.018-4.021 2.35-.589 4.672-.472 6.843-.127 4.356.726 8.275 2.398 12.054 4.186 3.776 1.799 7.373 3.861 10.971 5.863 1.796 1.008 3.603 1.984 5.439 2.869.922.438 1.86.83 2.828 1.123.941.262 2.031.525 2.926-.061z"/>
            </g>
            <path fill="#495674" stroke="#2B2844" stroke-width="3" stroke-miterlimit="10"
                  d="M93.657 150.604c0 2.765-2.238 5-5 5H18.99c-2.762 0-5-2.235-5-5l-5-44.332a5 5 0 0 1 5-5h69.667a5 5 0 0 1 5 5l5 44.332z"/>
        </g>
    </g>
</svg>
