<?xml version="1.0" encoding="utf-8"?>
<!-- Generator: Adobe Illustrator 15.1.0, SVG Export Plug-In . SVG Version: 6.00 Build 0)  -->
<!DOCTYPE svg PUBLIC "-//W3C//DTD SVG 1.1//EN" "http://www.w3.org/Graphics/SVG/1.1/DTD/svg11.dtd">
<svg version="1.1" xmlns="http://www.w3.org/2000/svg" xmlns:xlink="http://www.w3.org/1999/xlink" x="0px" y="0px" width="600px"
	 height="100px" viewBox="0 0 600 100" enable-background="new 0 0 600 100" xml:space="preserve">
<g id="twitter">
	<path fill="#F1F2F2" d="M85.95,27.639c-2.62,1.165-5.442,1.951-8.401,2.302c3.021-1.809,5.34-4.675,6.434-8.092
		c-2.826,1.678-5.956,2.894-9.29,3.551c-2.667-2.843-6.47-4.62-10.676-4.62c-8.078,0-14.628,6.549-14.628,14.628
		c0,1.145,0.13,2.26,0.379,3.333c-12.155-0.61-22.937-6.434-30.151-15.285c-1.26,2.161-1.981,4.673-1.981,7.356
		c0,5.075,2.584,9.553,6.507,12.175c-2.395-0.077-4.653-0.735-6.623-1.83c-0.003,0.061-0.003,0.123-0.003,0.185
		c0,7.085,5.042,12.994,11.734,14.343c-1.227,0.331-2.519,0.512-3.854,0.512c-0.943,0-1.86-0.09-2.753-0.264
		c1.862,5.81,7.265,10.041,13.665,10.158c-5.006,3.924-11.313,6.263-18.167,6.263c-1.179,0-2.344-0.069-3.488-0.205
		c6.473,4.152,14.162,6.572,22.421,6.572c26.908,0,41.618-22.289,41.618-41.618c0-0.634-0.011-1.266-0.039-1.895
		C81.512,33.149,83.99,30.572,85.95,27.639z"/>
</g>
<g id="last_fm">
	<path fill="#F1F2F2" d="M178.967,45.276c-0.727-0.237-1.429-0.458-2.102-0.672c-5.163-1.623-8.273-2.603-8.273-6.619
		c0-3.258,2.512-5.622,5.979-5.622c2.654,0,4.633,1.102,6.406,3.584c0.165,0.233,0.479,0.315,0.736,0.178l5.207-2.658
		c0.142-0.069,0.248-0.198,0.29-0.35c0.046-0.151,0.029-0.314-0.05-0.452c-2.789-4.958-6.813-7.368-12.3-7.368
		c-8.352,0-13.75,5.052-13.75,12.87c0,7.995,5.221,11.229,14.851,14.397c5.58,1.86,8.047,2.847,8.047,6.816
		c0,4.462-4.023,7.671-9.518,7.484c-5.754-0.196-7.5-3.246-9.691-8.242c-3.711-8.463-7.932-18.342-7.973-18.438
		c-4.237-9.777-12.636-15.38-23.046-15.38c-13.75,0-24.938,11.189-24.938,24.947c0,13.747,11.188,24.938,24.938,24.938
		c7.502,0,14.532-3.325,19.287-9.125c0.138-0.168,0.172-0.393,0.086-0.599l-3.145-7.255c-0.09-0.2-0.291-0.336-0.512-0.346
		c-0.229-0.01-0.434,0.115-0.535,0.311c-2.968,5.673-8.785,9.194-15.185,9.194c-9.437,0-17.112-7.677-17.112-17.118
		c0-9.444,7.677-17.121,17.113-17.121c6.871,0,13.166,4.078,15.667,10.163l7.774,17.735l0.897,1.992
		c3.516,8.191,8.679,11.859,16.769,11.889c9.621,0,16.872-6.375,16.872-14.824C191.759,51.1,187.07,47.919,178.967,45.276z"/>
</g>
<g id="steam">
	<path id="Gears" fill="#F1F2F2" d="M290.463,41.171c0,3.678-2.985,6.664-6.663,6.664c-3.679,0-6.663-2.985-6.663-6.664
		c0-3.678,2.984-6.664,6.663-6.664C287.478,34.507,290.463,37.493,290.463,41.171z M283.767,28.766
		c-6.832,0-12.381,5.51-12.442,12.328l-7.753,11.11c-0.315-0.032-0.638-0.052-0.962-0.052c-1.732,0-3.351,0.477-4.74,1.307
		l-35.112-14.121c-0.918-4.165-4.641-7.304-9.073-7.304c-5.117,0-9.291,4.186-9.291,9.303c0,5.118,4.174,9.291,9.291,9.291
		c1.732,0,3.351-0.476,4.741-1.307l35.112,14.096c0.909,4.176,4.631,7.317,9.072,7.317c4.812,0,8.78-3.688,9.24-8.382l11.917-8.713
		c6.869,0,12.443-5.563,12.443-12.431C296.21,34.338,290.637,28.766,283.767,28.766z M283.767,32.867
		c4.603,0,8.342,3.74,8.342,8.342s-3.739,8.329-8.342,8.329s-8.342-3.727-8.342-8.329S279.164,32.867,283.767,32.867z
		 M213.684,34.494c2.623,0,4.891,1.466,6.035,3.627l-3.395-1.358v0.013c-2.736-0.982-5.776,0.354-6.869,3.076
		c-1.094,2.721,0.164,5.8,2.818,6.983v0.013l2.884,1.154c-0.474,0.103-0.968,0.166-1.474,0.166c-3.786,0-6.83-3.044-6.83-6.831
		C206.854,37.552,209.897,34.494,213.684,34.494z M262.609,54.613c3.787,0,6.831,3.044,6.831,6.83s-3.044,6.831-6.831,6.831
		c-2.633,0-4.907-1.469-6.049-3.64c1.123,0.453,2.249,0.901,3.372,1.357c2.784,1.119,5.954-0.227,7.073-3.011
		s-0.24-5.941-3.025-7.061l-2.845-1.142C261.61,54.677,262.104,54.613,262.609,54.613z"/>
</g>
<g id="github">
	<g id="_x35_151e0c8492e5103c096af88a5006e1e_2_">
		<path id="XMLID_1_" fill="#F1F2F2" d="M302.244,51.825c4.359-1.089,10.286-2.571,20.67-2.847
			c-0.287-0.574-0.546-1.169-0.775-1.781c-4.041-0.035-16.485,0.539-20.748,1.592c-0.023,0.007-0.05,0.009-0.076,0.009
			c-0.143,0-0.274-0.098-0.309-0.243c-0.041-0.168,0.063-0.342,0.232-0.385c4.225-1.043,16.369-1.623,20.671-1.612
			c-0.968-2.846-1.396-6.108-1.396-9.749c0-6.468,2.014-8.908,4.72-12.354c-2.069-7.371,0.743-12.409,0.743-12.409
			s4.348-0.901,12.568,4.985c4.455-1.909,16.334-2.068,21.954-0.424c3.451-2.28,9.76-5.516,12.306-4.611
			c0.689,1.11,2.174,4.344,0.9,11.453c0.867,1.558,5.356,4.879,5.376,14.266c-0.075,3.461-0.434,6.384-1.1,8.857
			c10.718-0.091,17.022,0.794,21.365,1.594c0.17,0.035,0.285,0.2,0.255,0.372c-0.029,0.152-0.163,0.261-0.311,0.261
			c-0.023,0-0.041-0.002-0.063-0.004c-4.336-0.803-10.65-1.684-21.432-1.586c-0.188,0.627-0.4,1.224-0.63,1.792
			c3.669,0.122,13.745,0.515,21.964,3.028c0.17,0.051,0.264,0.229,0.212,0.399c-0.042,0.136-0.166,0.225-0.305,0.225
			c-0.029,0-0.063-0.004-0.092-0.017c-8.334-2.546-18.63-2.896-22.053-3.008c-2.981,6.546-9.093,8.99-18.975,10.006
			c3.203,2.016,4.12,4.545,4.12,11.387s-0.091,7.759-0.07,9.332c0.034,2.582,3.818,3.819,3.678,4.65
			c-0.142,0.829-3.166,0.695-4.579,0.201c-4.007-1.396-3.607-4.727-3.607-4.727l-0.133-9.149c0,0,0.273-4.924-1.544-4.924
			c0,0.991,0,11.434,0,14.975c0,3.253,2.277,4.241,2.277,5.444c0,2.069-4.16-0.195-5.442-1.485
			c-1.956-1.963-1.733-6.123-1.686-9.414c0.045-3.179-0.028-10.13-0.028-10.13l-1.328,0.027c0,0,0.545,15.186-0.699,17.953
			c-1.609,3.552-6.461,4.773-6.461,3.154c0-1.088,1.195-0.741,1.857-3.181c0.563-2.075,0.371-17.557,0.371-17.557
			s-1.555,0.92-1.555,3.819c0,1.327-0.037,8.907-0.037,11.164c0,2.838-4.029,4.453-5.967,4.453c-0.979,0-2.199-0.049-2.199-0.567
			c0-1.313,3.686-2.082,3.686-4.813c0-2.367-0.053-8.456-0.053-8.456s-1.857,0.318-4.509,0.318c-6.682,0-8.796-4.267-9.802-6.651
			c-1.309-3.109-3.006-4.569-4.809-5.736c-1.107-0.715-1.362-1.562-0.082-1.801c5.916-1.115,7.429,6.708,11.379,7.953
			c2.818,0.89,6.443,0.504,8.246-0.66c0.239-2.391,1.961-4.457,3.396-5.545c-10.048-0.965-16.005-4.453-19.093-10.062
			c-10.51,0.251-16.474,1.743-20.846,2.834c-0.318,0.08-0.63,0.158-0.93,0.234c-0.025,0.006-0.052,0.007-0.077,0.007
			c-0.144,0-0.272-0.095-0.31-0.241c-0.043-0.169,0.063-0.345,0.233-0.386C301.619,51.982,301.928,51.906,302.244,51.825z"/>
	</g>
</g>
<g id="stack_overflow">
	<path fill="#F1F2F2" d="M421.934,85.933V55.757l5.5,0.071l-0.217,24.243h36.255V55.9h5.718v30.032H421.934z M430.835,70.085h28.368
		v6.006h-28.368V70.085z M430.907,65.381l0.579-6.15l28.439,2.749l-0.579,6.15L430.907,65.381z M432.427,52.861l1.665-5.934
		l27.498,7.743l-1.736,5.935L432.427,52.861z M437.564,38.316l3.184-5.282l24.461,14.762l-3.256,5.283L437.564,38.316z
		 M449.65,23.481l4.992-3.618l16.645,23.229l-5.065,3.619L449.65,23.481z M467.886,14.581l6.08-1.013l4.704,28.149l-6.08,1.013
		L467.886,14.581z"/>
</g>
<g id="facebook">
	<path id="path3002_2_" nodetypes="ccccccccccccccccc" connector-curvature="0" fill="#F1F2F2" d="
		M541.611,90.656V53.292h-12.595V38.767h12.595V27.684c0-11.619,7.203-18.84,18.549-18.84c6.828,0,11.426,0.536,11.426,0.536v13.098
		h-7.694c-4.876,0-7.167,1.715-7.167,6.885v9.404h14.358l-1.848,14.525h-12.511v37.364H541.611z"/>
</g>
</svg>
